<svg width="64" height="64" viewBox="0 0 64 64" fill="none" xmlns="http://www.w3.org/2000/svg">
<path fill-rule="evenodd" clip-rule="evenodd" d="M8 32C8 18.7452 18.7452 8 32 8C45.2548 8 56 18.7452 56 32C56 45.2548 45.2548 56 32 56C18.7452 56 8 45.2548 8 32Z" fill="#F1F6F8"/>
<path fill-rule="evenodd" clip-rule="evenodd" d="M32.0006 25.6217C33.9535 25.6217 35.2708 26.4652 36.022 27.1701L38.9571 24.3043C37.1544 22.6288 34.8086 21.6003 32.0006 21.6003C27.9331 21.6003 24.4202 23.9346 22.71 27.3319L26.0726 29.9435C26.9162 27.4359 29.2504 25.6217 32.0006 25.6217Z" fill="#EA4335"/>
<path fill-rule="evenodd" clip-rule="evenodd" d="M41.9811 32.2314C41.9811 31.3763 41.9117 30.7523 41.7615 30.1052H31.9971V33.9648H37.7286C37.6131 34.9239 36.9891 36.3683 35.6024 37.339L38.8842 39.8812C40.8486 38.067 41.9811 35.3977 41.9811 32.2314Z" fill="#4285F4"/>
<path fill-rule="evenodd" clip-rule="evenodd" d="M26.0832 34.0572C25.8636 33.4101 25.7365 32.7168 25.7365 32.0004C25.7365 31.2839 25.8636 30.5906 26.0716 29.9435L22.7089 27.3319C22.0041 28.7417 21.5996 30.3248 21.5996 32.0004C21.5996 33.6759 22.0041 35.259 22.7089 36.6688L26.0832 34.0572Z" fill="#FBBC05"/>
<path fill-rule="evenodd" clip-rule="evenodd" d="M32.0008 42.4005C34.8088 42.4005 37.1661 41.476 38.8879 39.8814L35.6061 37.3392C34.7279 37.9516 33.5492 38.3792 32.0008 38.3792C29.2506 38.3792 26.9163 36.5649 26.0843 34.0574L22.7217 36.6689C24.4319 40.0663 27.9332 42.4005 32.0008 42.4005Z" fill="#34A853"/>
</svg>
