<svg width="42" height="32" viewBox="0 0 42 32" fill="none" xmlns="http://www.w3.org/2000/svg">
<path d="M7.26306 5.28571H2C1.44772 5.28571 1 5.73343 1 6.28571V30C1 30.5523 1.44771 31 2 31H40C40.5523 31 41 30.5523 41 30V6.28571C41 5.73343 40.5523 5.28571 40 5.28571H34.7369C34.478 5.28571 34.2292 5.18529 34.0428 5.00556L30.1794 1.28016C29.993 1.10043 29.7442 1 29.4853 1H12.5147C12.2558 1 12.007 1.10043 11.8206 1.28016L7.9572 5.00556C7.77081 5.18529 7.52199 5.28571 7.26306 5.28571Z" stroke="white" stroke-width="2"/>
<path d="M15.2269 20.8972V13.6875C15.2269 12.89 16.1148 12.4133 16.7795 12.854L22.2171 16.4589C22.8137 16.8544 22.8137 17.7303 22.2171 18.1258L16.7795 21.7307C16.1148 22.1713 15.2269 21.6947 15.2269 20.8972Z" stroke="white" stroke-width="2" stroke-linejoin="round"/>
<path d="M26 13V22" stroke="white" stroke-width="2" stroke-linecap="round"/>
</svg>
