<svg width="64" height="64" viewBox="0 0 64 64" fill="none" xmlns="http://www.w3.org/2000/svg">
<path fill-rule="evenodd" clip-rule="evenodd" d="M8 32C8 18.7452 18.7452 8 32 8C45.2548 8 56 18.7452 56 32C56 45.2548 45.2548 56 32 56C18.7452 56 8 45.2548 8 32Z" fill="#4C6C91"/>
<path fill-rule="evenodd" clip-rule="evenodd" d="M33.2751 39.9415C33.2751 39.9415 33.7443 39.8923 33.9847 39.6486C34.2047 39.4254 34.197 39.0041 34.197 39.0041C34.197 39.0041 34.1678 37.0369 35.1355 36.7464C36.0893 36.4608 37.3139 38.6488 38.6135 39.4902C39.5952 40.1263 40.3404 39.9871 40.3404 39.9871L43.8133 39.9415C43.8133 39.9415 45.6293 39.8359 44.7684 38.488C44.6971 38.3776 44.266 37.4906 42.1869 35.6686C40.0085 33.7614 40.301 34.0699 42.9232 30.7704C44.5204 28.7612 45.1588 27.5345 44.9591 27.01C44.7696 26.5083 43.5946 26.6415 43.5946 26.6415L39.6855 26.6643C39.6855 26.6643 39.3956 26.6271 39.1807 26.7484C38.9708 26.8672 38.8348 27.1444 38.8348 27.1444C38.8348 27.1444 38.2168 28.6988 37.3914 30.0214C35.6505 32.8108 34.9549 32.9584 34.6701 32.7856C34.0076 32.3811 34.1729 31.1629 34.1729 30.2975C34.1729 27.5933 34.6078 26.4663 33.3272 26.1746C32.9025 26.0774 32.5897 26.0138 31.5024 26.003C30.1074 25.9898 28.9273 26.0078 28.2584 26.3163C27.8133 26.5215 27.4699 26.98 27.6798 27.0064C27.9379 27.0388 28.5229 27.1552 28.8332 27.5537C29.2337 28.0686 29.2198 29.2233 29.2198 29.2233C29.2198 29.2233 29.4499 32.4063 28.6818 32.8012C28.1554 33.0725 27.4331 32.5191 25.8804 29.9878C25.0856 28.6916 24.4854 27.2585 24.4854 27.2585C24.4854 27.2585 24.3696 26.9908 24.1624 26.8468C23.9118 26.6727 23.5621 26.6187 23.5621 26.6187L19.8476 26.6415C19.8476 26.6415 19.2894 26.6559 19.0846 26.8852C18.9028 27.088 19.0706 27.5093 19.0706 27.5093C19.0706 27.5093 21.9789 33.9318 25.2725 37.1689C28.2927 40.1359 31.7211 39.9415 31.7211 39.9415H33.2751Z" fill="white"/>
</svg>
